<svg preserveAspectRatio="none" overflow="visible" style="display: block;" width="24" height="24" viewBox="0 0 24 24" fill="none" xmlns="http://www.w3.org/2000/svg">
<g id="LiveArea" clip-path="url(#clip0_0_8)">
<path id="Pencil" d="M21.217 0.729516C20.2443 -0.243172 18.6472 -0.243172 17.6745 0.729516L1.65521 16.7488C1.4991 16.9049 1.39102 17.0971 1.34299 17.3012L0.0340644 22.5129C-0.0620035 22.9212 0.0460728 23.3535 0.346285 23.6537C0.574446 23.8819 0.886667 24.002 1.19889 24.002C1.29496 24.002 1.39102 24.002 1.48709 23.9659L6.69877 22.657C6.91493 22.609 7.10706 22.5009 7.25116 22.3448L23.2705 6.32547C24.2432 5.35278 24.2432 3.75565 23.2705 2.78297L21.205 0.717507L21.217 0.729516ZM21.5893 4.63227L19.4518 6.76978L17.2422 4.56022L19.3797 2.42271C19.3797 2.42271 19.4878 2.38669 19.5238 2.42271L21.5893 4.48817C21.5893 4.48817 21.6253 4.59625 21.5893 4.63227Z" fill="currentColor"/>
</g>
<defs>
<clipPath id="clip0_0_8">
<rect width="24" height="24" fill="currentColor"/>
</clipPath>
</defs>
</svg>
